<?xml version="1.0" encoding="UTF-8"?>
<svg fill="#FFF" viewBox="0 0 18 18" xmlns="http://www.w3.org/2000/svg">
<path d="m10.41 9 6.3-6.29c0.1883-0.1883 0.2941-0.4437 0.2941-0.71s-0.1058-0.52169-0.2941-0.71c-0.1883-0.1883-0.4437-0.29409-0.71-0.29409s-0.5217 0.10579-0.71 0.29409l-6.29 6.3-6.29-6.3c-0.1883-0.1883-0.4437-0.29409-0.71-0.29409s-0.5217 0.10579-0.71 0.29409c-0.1883 0.18831-0.29409 0.4437-0.29409 0.71s0.10579 0.5217 0.29409 0.71l6.3 6.29-6.3 6.29c-0.09373 0.093-0.16812 0.2036-0.21889 0.3254-0.05077 0.1219-0.076909 0.2526-0.076909 0.3846s0.026139 0.2627 0.076909 0.3846c0.05077 0.1218 0.12516 0.2324 0.21889 0.3254 0.09296 0.0937 0.20356 0.1681 0.32542 0.2189s0.25257 0.0769 0.38458 0.0769 0.26272-0.0261 0.38458-0.0769 0.23246-0.1252 0.32542-0.2189l6.29-6.3 6.29 6.3c0.093 0.0937 0.2036 0.1681 0.3255 0.2189 0.1218 0.0508 0.2525 0.0769 0.3845 0.0769 0.1321 0 0.2628-0.0261 0.3846-0.0769 0.1219-0.0508 0.2325-0.1252 0.3254-0.2189 0.0938-0.093 0.1682-0.2036 0.2189-0.3254 0.0508-0.1219 0.0769-0.2526 0.0769-0.3846s-0.0261-0.2627-0.0769-0.3846c-0.0507-0.1218-0.1251-0.2324-0.2189-0.3254l-6.3-6.29z" fill="#fff"/>
</svg>
